<svg width="24" height="24" viewBox="0 0 24 24" fill="none" xmlns="http://www.w3.org/2000/svg">
<path d="M19.6753 7.818C19.56 7.908 17.5232 9.062 17.5232 11.628C17.5232 14.596 20.1149 15.646 20.1925 15.672C20.1805 15.736 19.7807 17.11 18.826 18.51C17.9747 19.742 17.0856 20.972 15.7331 20.972C14.3806 20.972 14.0325 20.182 12.4712 20.182C10.9496 20.182 10.4086 20.998 9.1714 20.998C7.93425 20.998 7.07102 19.858 6.07851 18.458C4.92886 16.814 4 14.26 4 11.836C4 7.948 6.5141 5.886 8.98842 5.886C10.3031 5.886 11.3991 6.754 12.2245 6.754C13.0102 6.754 14.2354 5.834 15.7311 5.834C16.298 5.834 18.3347 5.886 19.6753 7.818ZM15.0211 4.188C15.6396 3.45 16.0772 2.426 16.0772 1.402C16.0772 1.26 16.0653 1.116 16.0394 1C15.033 1.038 13.8356 1.674 13.1136 2.516C12.5467 3.164 12.0177 4.188 12.0177 5.226C12.0177 5.382 12.0435 5.538 12.0555 5.588C12.1191 5.6 12.2225 5.614 12.326 5.614C13.229 5.614 14.3647 5.006 15.0211 4.188Z" fill="white"/>
</svg>
