<svg width="231" height="230" viewBox="0 0 231 230" fill="none" xmlns="http://www.w3.org/2000/svg">
<mask id="mask0_2929_111820" style="mask-type:luminance" maskUnits="userSpaceOnUse" x="0" y="0" width="231" height="230">
<path d="M230.5 0H0.5V230H230.5V0Z" fill="white"/>
</mask>
<g mask="url(#mask0_2929_111820)">
<path d="M157.872 115C157.872 138.401 138.901 157.372 115.5 157.372C92.0986 157.372 73.1279 138.401 73.1279 115C73.1279 91.5988 92.0986 72.6284 115.5 72.6284C138.901 72.6284 157.872 91.5988 157.872 115Z" fill="#52B5EC"/>
<g opacity="0.642895">
<path d="M136.258 26.9212C136.258 30.8759 133.052 34.0819 129.097 34.0819C125.143 34.0819 121.937 30.8759 121.937 26.9212C121.937 22.9668 125.143 19.761 129.097 19.761C133.052 19.761 136.258 22.9668 136.258 26.9212Z" fill="#5CCBED"/>
</g>
<g opacity="0.959431">
<path d="M88.9233 43.5311L84.6709 45.9862C83.901 46.4307 82.9166 46.1668 82.472 45.3971L74.7936 32.0974C74.349 31.3277 74.6129 30.3433 75.3827 29.8989L79.6353 27.4436C80.405 26.9993 81.3894 27.263 81.8339 28.0327L89.5124 41.3324C89.957 42.1024 89.693 43.0865 88.9233 43.5311Z" fill="#6AE4EC"/>
</g>
<g opacity="0.959431">
<path d="M27.2366 62.6939L28.1931 63.0184C29.2776 63.3862 30.4738 63.1966 31.3918 62.5116L32.2014 61.9075C34.513 60.1825 37.7995 61.8568 37.7626 64.741L37.7497 65.751C37.7349 66.8963 38.2846 67.9755 39.2197 68.6368L40.0446 69.22C42.3995 70.8854 41.8224 74.5281 39.0682 75.3844L38.1035 75.6842C37.0098 76.0241 36.1537 76.8806 35.8138 77.9743L35.5138 78.939C34.6577 81.6932 31.0148 82.2701 29.3494 79.9152L28.766 79.0906C28.1046 78.1554 27.0255 77.6055 25.8804 77.6203L24.8702 77.633C21.9862 77.6698 20.3119 74.3838 22.0369 72.072L22.6413 71.2624C23.3263 70.3447 23.5156 69.1485 23.1478 68.0637L22.8233 67.1072C21.8971 64.3755 24.5049 61.7677 27.2366 62.6939Z" fill="#6AE4EC"/>
</g>
<g opacity="0.959431">
<path d="M25.5577 105.874L26.6317 110.665C26.8262 111.533 26.2808 112.394 25.4132 112.588L10.4281 115.947C9.56082 116.141 8.70007 115.596 8.50535 114.729L7.43135 109.937C7.2371 109.07 7.78255 108.209 8.64986 108.015L23.6352 104.655C24.5025 104.461 25.3632 105.007 25.5577 105.874Z" fill="#5CCBED"/>
</g>
<g opacity="0.959431">
<path d="M37.5668 155.723C37.5668 159.678 34.361 162.884 30.4066 162.884C26.4519 162.884 23.2463 159.678 23.2463 155.723C23.2463 151.769 26.4519 148.563 30.4066 148.563C34.361 148.563 37.5668 151.769 37.5668 155.723Z" fill="#F66A67"/>
</g>
<g opacity="0.959431">
<path d="M27.2122 185.412L28.1686 185.737C29.2532 186.105 30.4494 185.915 31.3674 185.23L32.177 184.626C34.4885 182.901 37.775 184.575 37.7382 187.46L37.7253 188.47C37.7105 189.615 38.2602 190.694 39.1953 191.355L40.0202 191.938C42.3751 193.604 41.798 197.247 39.0438 198.103L38.0791 198.403C36.9854 198.743 36.1293 199.599 35.7894 200.693L35.4893 201.657C34.6333 204.412 30.9904 204.989 29.325 202.634L28.7415 201.809C28.0802 200.874 27.001 200.324 25.856 200.339L24.8458 200.352C21.9618 200.389 20.2875 197.102 22.0125 194.791L22.6168 193.981C23.3019 193.063 23.4912 191.867 23.1233 190.782L22.7989 189.826C21.8727 187.094 24.4805 184.486 27.2122 185.412Z" fill="#FFCF72"/>
</g>
<g opacity="0.959431">
<path fill-rule="evenodd" clip-rule="evenodd" d="M189.784 52.4606C188.474 50.7601 185.732 50.3467 183.679 51.9221L183.678 51.9222C181.623 53.4993 181.314 56.2592 182.623 57.9652C183.412 58.9932 183.218 60.4659 182.19 61.2546C181.162 62.0433 179.689 61.8493 178.901 60.8213C175.87 56.8711 176.904 51.2057 180.822 48.1997L182.25 50.0609L180.822 48.1997C184.738 45.1949 190.476 45.6598 193.508 49.6065C193.513 49.6123 193.517 49.6176 193.52 49.6222C194.293 50.6234 194.133 52.0643 193.148 52.8704C192.145 53.6908 190.667 53.543 189.847 52.5403C189.827 52.516 189.811 52.4953 189.799 52.4806C189.793 52.4729 189.788 52.466 189.784 52.4606Z" fill="#F66A67"/>
</g>
<g opacity="0.959431">
<path d="M195.687 90.0994L196.644 90.4239C197.728 90.7917 198.925 90.6022 199.842 89.9171L200.652 89.313C202.964 87.588 206.25 89.2624 206.213 92.1465L206.2 93.1565C206.186 94.3018 206.736 95.381 207.671 96.0423L208.495 96.6255C210.85 98.2909 210.273 101.934 207.519 102.79L206.554 103.09C205.46 103.43 204.604 104.286 204.264 105.38L203.964 106.345C203.108 109.099 199.465 109.676 197.8 107.321L197.217 106.496C196.555 105.561 195.476 105.011 194.331 105.026L193.321 105.039C190.437 105.075 188.762 101.789 190.488 99.4778L191.092 98.6682C191.777 97.7502 191.966 96.554 191.598 95.4692L191.274 94.5127C190.348 91.781 192.955 89.1732 195.687 90.0994Z" fill="#FFCF72"/>
</g>
<g opacity="0.959431">
<path fill-rule="evenodd" clip-rule="evenodd" d="M200.925 159.804C201.052 158.84 201.935 158.162 202.899 158.289C208.82 159.069 212.847 164.791 212.055 170.805M199.977 180.525C199.967 180.524 199.958 180.522 199.95 180.521L199.949 180.521C198.986 180.398 198.304 179.516 198.428 178.552C198.552 177.588 199.433 176.907 200.397 177.031C200.407 177.032 200.413 177.033 200.419 177.034C200.423 177.034 200.427 177.035 200.431 177.035C204.247 177.538 208.004 174.615 208.566 170.346L208.566 170.346C209.128 166.076 206.256 162.281 202.439 161.778C201.476 161.651 200.798 160.767 200.925 159.804" fill="#F66A67"/>
</g>
<g opacity="0.959431">
<path d="M191.499 213.125L187.247 215.58C186.477 216.024 185.493 215.76 185.048 214.991L177.37 201.691C176.925 200.921 177.189 199.937 177.959 199.493L182.211 197.037C182.981 196.593 183.965 196.856 184.41 197.626L192.088 210.926C192.533 211.696 192.269 212.68 191.499 213.125Z" fill="#6AE4EC"/>
</g>
<g opacity="0.959431">
<path fill-rule="evenodd" clip-rule="evenodd" d="M86.3687 209.707C84.2403 206.933 79.8917 206.35 76.7081 208.793L76.708 208.793C73.5245 211.236 72.9621 215.587 75.0906 218.361C75.8793 219.389 75.6853 220.861 74.6574 221.65C73.6295 222.439 72.1568 222.245 71.3681 221.217C67.5175 216.199 68.8061 208.942 73.8518 205.07C78.8956 201.2 86.235 201.832 90.0867 206.845L90.0999 206.862C90.8946 207.885 90.7092 209.359 89.6859 210.154C88.6626 210.948 87.1888 210.763 86.3941 209.74L86.377 209.718C86.3742 209.714 86.3714 209.71 86.3687 209.707Z" fill="#5CCBED"/>
</g>
<g opacity="0.2">
<path d="M217.192 115C217.192 171.163 171.663 216.692 115.5 216.692C59.3369 216.692 13.8074 171.163 13.8074 115C13.8074 58.8368 59.3369 13.3079 115.5 13.3079C171.663 13.3079 217.192 58.8368 217.192 115Z" fill="#66C9EB"/>
</g>
<mask id="mask1_2929_111820" style="mask-type:alpha" maskUnits="userSpaceOnUse" x="68" y="67" width="96" height="96">
<path d="M163.201 114.751C163.201 141.031 141.896 162.336 115.616 162.336C89.336 162.336 68.0315 141.031 68.0315 114.751C68.0315 88.4707 89.336 67.1665 115.616 67.1665C141.896 67.1665 163.201 88.4707 163.201 114.751Z" fill="#52B5EC"/>
</mask>
<g mask="url(#mask1_2929_111820)">
<path d="M41.2479 -5.29443C41.2479 -5.29443 -6.15565 94.3807 -54.2925 94.1119C-55.5168 94.1052 -6.79834 144.92 -6.79834 144.92C-6.79834 144.92 83.723 133.884 78.8015 12.3778C78.2742 -0.639315 41.2479 -5.29443 41.2479 -5.29443Z" fill="#98FAE7" fill-opacity="0.3"/>
</g>
<path fill-rule="evenodd" clip-rule="evenodd" d="M140.809 97.147C142.385 98.7229 142.385 101.278 140.809 102.854L110.81 132.853C110.054 133.61 109.027 134.035 107.957 134.035C106.887 134.035 105.86 133.61 105.104 132.853L90.1905 117.94C88.6146 116.364 88.6146 113.809 90.1905 112.233C91.7664 110.657 94.3214 110.657 95.8973 112.233L107.957 124.293L135.102 97.147C136.678 95.5711 139.233 95.5711 140.809 97.147Z" fill="white"/>
</g>
</svg>
