<svg width="205" height="204" viewBox="0 0 205 204" fill="none" xmlns="http://www.w3.org/2000/svg">
<g opacity="0.2">
<path d="M204.192 102C204.192 158.163 158.663 203.692 102.5 203.692C46.3369 203.692 0.807373 158.163 0.807373 102C0.807373 45.8368 46.3369 0.307861 102.5 0.307861C158.663 0.307861 204.192 45.8368 204.192 102Z" fill="#66C9EB"/>
</g>
<mask id="mask0_2742_56917" style="mask-type:alpha" maskUnits="userSpaceOnUse" x="55" y="54" width="96" height="96">
<path d="M150.201 101.751C150.201 128.031 128.896 149.336 102.616 149.336C76.336 149.336 55.0315 128.031 55.0315 101.751C55.0315 75.4707 76.336 54.1665 102.616 54.1665C128.896 54.1665 150.201 75.4707 150.201 101.751Z" fill="#52B5EC"/>
</mask>
<g mask="url(#mask0_2742_56917)">
<path d="M28.2479 -18.2944C28.2479 -18.2944 -19.1556 81.3807 -67.2925 81.1119C-68.5168 81.1052 -19.7983 131.92 -19.7983 131.92C-19.7983 131.92 70.723 120.884 65.8015 -0.62219C65.2742 -13.6393 28.2479 -18.2944 28.2479 -18.2944Z" fill="#98FAE7" fill-opacity="0.3"/>
</g>
</svg>
